<?xml version="1.0" encoding="utf-8"?><svg viewBox="0 0 28 30" xmlns="http://www.w3.org/2000/svg" xmlns:xlink="http://www.w3.org/1999/xlink"><style>:root>svg{display:none}:root>svg:target{display:block}</style><svg viewBox="0 0 24 24" id="eye" xmlns="http://www.w3.org/2000/svg"><path d="M12.015 7c4.751 0 8.063 3.012 9.504 4.636C20.118 13.473 16.806 17 12.015 17c-4.42 0-7.93-3.536-9.478-5.407C4.03 9.946 7.354 7 12.015 7zm0-2C4.446 5 0 11.551 0 11.551S4.835 19 12.015 19C19.748 19 24 11.551 24 11.551S19.709 5 12.015 5zM12 8a4 4 0 100 8 4 4 0 000-8zm-.004 3.999a1.446 1.446 0 11-2.044-2.046 1.446 1.446 0 012.044 2.046z"/></svg><svg viewBox="0 0 24 24" id="heart" xmlns="http://www.w3.org/2000/svg"><path d="M12 4.435C10.011-.964 0-.162 0 8.003 0 12.071 3.06 17.484 12 23c8.94-5.516 12-10.929 12-14.997C24-.115 14-.996 12 4.435z"/></svg><svg viewBox="0 0 28 30" id="luna" xmlns="http://www.w3.org/2000/svg"><path d="M11.18.433a13.468 13.468 0 012.963-.302.51.51 0 01.495.526.522.522 0 01-.324.483c-2.084.856-3.752 2.453-4.775 4.43a10.076 10.076 0 00-.932 6.585l.002.017c.522 2.631 2.012 4.794 4.006 6.164 1.991 1.37 4.481 1.946 7.001 1.409l.016-.003a9.167 9.167 0 004.626-2.564 9.91 9.91 0 002.581-4.797.498.498 0 01.597-.39c.203.05.349.221.38.424a15.085 15.085 0 01-2.291 10.637c-1.976 2.993-5.02 5.227-8.7 6.017-3.786.813-7.53-.053-10.522-2.108C3.31 24.898 1.07 21.65.29 17.696A15.11 15.11 0 012.172 6.931C4.052 3.836 7.037 1.473 10.69.548c.071-.02.153-.039.242-.06h.002l.246-.055z"/></svg><svg viewBox="0 0 28 28" id="sun" xmlns="http://www.w3.org/2000/svg"><mask id="da"><path d="M13.984 0a.999.999 0 00-.983 1.013V4.01a.998.998 0 101.998 0V1.013A1 1 0 0013.984 0zM4.806 3.81a1 1 0 00-.694 1.715L6.23 7.643A.999.999 0 107.643 6.23L5.524 4.111a1 1 0 00-.718-.302zm18.357 0a.999.999 0 00-.687.302l-2.12 2.12a.998.998 0 101.413 1.412l2.12-2.12a1 1 0 00-.726-1.714zM14 7.007a6.993 6.993 0 100 13.986 6.993 6.993 0 000-13.986zM1.013 13a1 1 0 100 1.998H4.01a1 1 0 100-1.998H1.013zm22.977 0a1 1 0 100 1.998h2.997a1 1 0 100-1.998H23.99zM6.917 20.054a.999.999 0 00-.686.303l-2.12 2.119a.999.999 0 101.413 1.412l2.12-2.119a.999.999 0 00-.727-1.715zm14.136 0a.998.998 0 00-.696 1.715l2.119 2.12a1 1 0 101.412-1.413l-2.119-2.12a.998.998 0 00-.716-.302zm-7.069 2.923a.999.999 0 00-.983 1.013v2.997a.997.997 0 001.385.936 1 1 0 00.613-.936V23.99a1 1 0 00-1.015-1.013z"/></mask><path d="M13.984 0a.999.999 0 00-.983 1.013V4.01a.998.998 0 101.998 0V1.013A1 1 0 0013.984 0zM4.806 3.81a1 1 0 00-.694 1.715L6.23 7.643A.999.999 0 107.643 6.23L5.524 4.111a1 1 0 00-.718-.302zm18.357 0a.999.999 0 00-.687.302l-2.12 2.12a.998.998 0 101.413 1.412l2.12-2.12a1 1 0 00-.726-1.714zM14 7.007a6.993 6.993 0 100 13.986 6.993 6.993 0 000-13.986zM1.013 13a1 1 0 100 1.998H4.01a1 1 0 100-1.998H1.013zm22.977 0a1 1 0 100 1.998h2.997a1 1 0 100-1.998H23.99zM6.917 20.054a.999.999 0 00-.686.303l-2.12 2.119a.999.999 0 101.413 1.412l2.12-2.119a.999.999 0 00-.727-1.715zm14.136 0a.998.998 0 00-.696 1.715l2.119 2.12a1 1 0 101.412-1.413l-2.119-2.12a.998.998 0 00-.716-.302zm-7.069 2.923a.999.999 0 00-.983 1.013v2.997a.997.997 0 001.385.936 1 1 0 00.613-.936V23.99a1 1 0 00-1.015-1.013z" mask="url(#da)"/></svg></svg>